<svg version="1.1" id="图层_1" xmlns="http://www.w3.org/2000/svg" x="0" y="0" viewBox="0 0 5393 990" xml:space="preserve"><style>.st1{fill:#111}</style><linearGradient id="SVGID_1_" gradientUnits="userSpaceOnUse" x1="1735.2" y1="1035.8" x2="1736.2" y2="1034.9" gradientTransform="matrix(1032 0 0 -984 -1790847 1019380)"><stop offset="0" stop-color="#ffac88"/><stop offset="1" stop-color="#ff6d63"/></linearGradient><path d="M619.7 921.6l67.5-134c2.3-4.9 4.8-16 4.8-21.5 0-19.5-17.9-38.3-36.2-38.3H497.9a43.2 43.2 0 01-38.6-62.8l17.3-33.4c5.5-12 13.2-25.3 13.2-38.6 0-48.7-37.1-88.3-82.8-88.3L203.3 914.6A125.5 125.5 0 0190.8 984H41c-22.9 0-41-19.8-41-44.2 0-7.2 1.6-14.3 4.8-20.6L442.6 45C458.1 16.8 482.2 0 516 0s57.9 16.8 73.4 45l437.8 874.2c3.5 7 4.8 14.5 4.8 21.7 0 12-8.4 30.3-22.1 38-6 3.4-12.1 5.1-18.9 5.1H658.6a43.2 43.2 0 01-38.9-62.4z" fill="url(#SVGID_1_)"/><path id="AFS" class="st1" d="M1628.6 588l-54.2-150.7h-207.5L1313.8 588h-93.6l203.1-545h96.5l203.1 545h-94.3zM1551 360.8L1500.1 213c-3.7-9.9-8.8-25.5-15.4-46.8s-11.1-36.9-13.6-46.8a854.3 854.3 0 01-29.3 99.9l-49 141.4H1551zM1882.5 588h-88V45.2h306.3v75h-218.3v169.7h204.6v75.4h-204.6V588zm629.7-147.4c0 48.3-17.4 86.1-52.3 113.6s-83 41.2-144.4 41.2-111.6-9.5-150.7-28.6v-83.9a413 413 0 0078.9 27.5c27.8 6.7 53.8 10 77.8 10 35.1 0 61.1-6.7 77.8-20a65.4 65.4 0 0025.1-53.8c0-20.3-7.7-37.5-23-51.6-15.3-14.1-47-30.8-95-50.1-49.5-20-84.4-42.9-104.7-68.7a145.2 145.2 0 01-30.4-92.8c0-45.3 16.1-80.9 48.3-106.9 32.2-26 75.4-39 129.6-39 52 0 103.7 11.4 155.2 34.2l-28.2 72.4c-48.3-20.3-91.3-30.4-129.2-30.4-28.7 0-50.5 6.2-65.3 18.7a61.4 61.4 0 00-22.3 49.6c0 14.1 3 26.2 8.9 36.2s15.7 19.5 29.3 28.4 38.1 20.7 73.5 35.3c39.8 16.6 69.1 32.1 87.6 46.4 18.6 14.4 32.2 30.6 40.8 48.6s12.7 39.2 12.7 63.7z"/><path id="Rectangle" class="st1" d="M2719.2 47.6h47.5v551.2h-47.5z"/><path id="软牛科技" class="st1" d="M3085.7 221.4h60.7v77.8h64.8v55.4h-64.8v60.7c26.5-5.3 51.9-10.6 76-16.5v57.7c-24.7 6.5-50.1 12.4-76 18.3v125.5h-60.7V485.9c-35.4 5.9-72.5 11.2-111.4 15.9l-8.2-60.1c42.4-4.7 81.9-10 119.6-15.9v-71.3h-98.4l-13.6-54.2a717 717 0 0041.2-110.8h-47.7v-60.1h63c5.3-23.6 10.6-48.9 15.3-74.8l59.5 8.8c-4.7 23-9.4 44.8-14.1 66h132.6v60.1h-147.9a1203 1203 0 01-37.1 109.6h47.1v-77.7zm185-174.5l61.3 9.4a896.4 896.4 0 01-13.6 83.1h179.1v39.5a1296.5 1296.5 0 01-41.8 150.3l-61.3-17.1c14.7-33 27.1-70.7 37.7-114.3h-128.5c-14.1 46-31.2 82.5-51.9 110.2l-50.7-35.9c36.1-53.7 59.1-128.5 69.7-225.2zm47.7 185.1h59.5c0 41.2-2.4 79-6.5 113.1 26.5 85.4 73.1 153.8 139.1 204.5l-44.2 51.3a481.1 481.1 0 01-113.7-160.3c-19.4 64.8-61.3 119-124.9 162.6l-40.7-50.1c56-38.9 92.5-85.4 109.6-140.2 14.2-46.6 21.3-106.7 21.8-180.9zm376.9 0a637.6 637.6 0 01-64.8 101.9l-41.8-50.7c40.7-48.9 76.6-118.4 107.2-209.2l58.3 13.6c-10 30.1-20.6 58.3-31.2 84.3h119.6v-119h61.9v119H4096V232h-191.5v128.5h223.9v60.7h-223.9v176.2h-61.9V421.1h-245.7v-60.7h245.7V232h-147.3zm1056.8 134.9l10 60.1-54.2 8.8v162.6H4646V445.9l-175 27.7-9.4-60.1L4646 384V56.4h61.9V374l44.2-7.1zM4531.7 86.4a790 790 0 0199.6 83.7l-42.4 43c-23.6-26.5-57.2-54.8-100.8-84.3l43.6-42.4zM4514 221.9a822.5 822.5 0 01101.9 87.2l-44.2 44.2c-23.6-27.1-57.7-57.2-101.4-89l43.7-42.4zm-286.9-15.3h90.2v-67.8c-25.3 3.5-51.3 6.5-77.8 8.8L4227.1 90c76-5.9 143.8-17.1 203.9-34.8l21.8 57.7c-23.6 5.9-47.7 11.8-73.7 16.5v77.2h73.1v59.5h-73.1v20c30.6 23.6 61.9 49.5 93.7 78.4l-34.8 51.9c-23-28.9-42.4-52.4-58.9-70.1v251.6h-61.9V351.6a591 591 0 01-81.9 136.7l-27.1-68.9c46-44.8 79.5-96 101.4-153.2h-82.5v-59.6zm687.4 386.6h-50.7l-13-57.2c14.7 2.4 28.9 3.5 43 3.5 13 0 19.4-7.7 19.4-23V398.1c-20 7.7-40.7 14.7-60.7 21.8l-15.9-60.7a890.1 890.1 0 0076.6-21.8v-122h-64.8v-59.5h64.8V55.2h60.1V156h55.4v59.5h-55.4v97.8a840 840 0 0056.6-28.9v60.1c-18.9 10-37.7 19.4-56.6 28.3v159.1c.1 40.6-20 61.3-58.8 61.3zm129-459.6h136.1V56.4h60.1v77.2h136.1v58.3h-136.1v79.5h113.7v54.2a369.3 369.3 0 01-90.7 156.2c35.4 25.3 79 47.7 129.6 67.8l-31.8 51.3a666.4 666.4 0 01-140.8-81.3c-44.2 33.6-97.8 61.3-160.9 83.1l-28.9-51.9c57.2-17.7 106.1-40.7 146.1-69.5a344.8 344.8 0 01-90.2-152h-30.6v-57.7h124.3v-79.5h-136.1v-58.5zm100.2 195.6c13.6 43 38.3 81.9 74.2 116.1 33-33 58.3-71.9 75.4-116.1h-149.6z"/><path id="ADVANCEDTECHNOLOGY_x2C_SIMPLIFIEDLIFE" class="st1" d="M1315 966.5l-9.3-30.6h-46.8l-9.3 30.6h-29.4l45.4-129h33.3l45.5 129H1315zm-15.8-53.4c-8.6-27.7-13.5-43.4-14.5-47a89.8 89.8 0 01-2.3-8.6c-1.9 7.5-7.5 26-16.6 55.6h33.4zm180.1-12.1c0 21.2-6 37.4-18.1 48.6s-29.4 16.9-52.2 16.9h-36.4V838h40.3c21 0 37.3 5.5 48.9 16.6 11.7 11.1 17.5 26.6 17.5 46.4zm-28.3.8c0-27.6-12.2-41.4-36.6-41.4h-14.5V944h11.7c26.3 0 39.4-14.1 39.4-42.2zm138.6-63.8h27.5l-43.7 128.5h-29.7L1500.1 838h27.5l24.2 76.5a461.7 461.7 0 016.9 28.3c.6-5.4 2.8-14.8 6.6-28.3l24.3-76.5zm127.3 128.5l-9.3-30.6h-46.8l-9.3 30.6H1622l45.4-129h33.3l45.5 129h-29.3zm-15.9-53.4c-8.6-27.7-13.5-43.4-14.5-47a89.8 89.8 0 01-2.3-8.6c-1.9 7.5-7.5 26-16.6 55.6h33.4zm187.5 53.4h-34.6l-55.9-97.2h-.8c1.1 17.2 1.7 29.4 1.7 36.7v60.5h-24.3V838h34.4l55.8 96.2h.6c-.9-16.7-1.3-28.5-1.3-35.4V838h24.5v128.5zm99-107.6a27.7 27.7 0 00-23.8 11.6 53.8 53.8 0 00-8.4 32.2c0 28.7 10.8 43 32.3 43 9 0 20-2.3 32.8-6.8v22.9a90.6 90.6 0 01-35.3 6.6c-18.7 0-33-5.7-42.9-17-9.9-11.3-14.9-27.6-14.9-48.8 0-13.4 2.4-25.1 7.3-35.1s11.9-17.8 21-23.1c9.1-5.4 19.8-8 32-8 12.5 0 25 3 37.6 9.1l-8.8 22.1c-4.8-2.3-9.6-4.3-14.5-6s-9.7-2.7-14.4-2.7zm146.3 107.6h-74V838h74v22.3H2087v28.2h43.5v22.3H2087V944h46.8v22.5zm145.5-65.5c0 21.2-6 37.4-18.1 48.6-12 11.3-29.4 16.9-52.2 16.9h-36.4V838h40.3c21 0 37.3 5.5 48.9 16.6 11.7 11.1 17.5 26.6 17.5 46.4zm-28.3.8c0-27.6-12.2-41.4-36.6-41.4H2200V944h11.7c26.2 0 39.3-14.1 39.3-42.2zm175.5 64.7h-27.2V860.7h-34.9V838h97v22.7h-34.9v105.8zm140.8 0h-74V838h74v22.3h-46.8v28.2h43.5v22.3h-43.5V944h46.8v22.5zm93.5-107.6a27.7 27.7 0 00-23.8 11.6 53.8 53.8 0 00-8.4 32.2c0 28.7 10.8 43 32.3 43 9 0 20-2.3 32.8-6.8v22.9a90.6 90.6 0 01-35.3 6.6c-18.7 0-33-5.7-42.9-17-9.9-11.3-14.9-27.6-14.9-48.8 0-13.4 2.4-25.1 7.3-35.1s11.9-17.8 21-23.1c9.1-5.4 19.8-8 32-8 12.5 0 25 3 37.6 9.1l-8.8 22.1c-4.8-2.3-9.6-4.3-14.5-6s-9.7-2.7-14.4-2.7zm177.5 107.6h-27.2V911h-50.9v55.5H2733V838h27.2v50.4h50.9V838h27.2v128.5zm158.6 0h-34.6l-55.9-97.2h-.8c1.1 17.2 1.7 29.4 1.7 36.7v60.5H2883V838h34.4l55.8 96.2h.6c-.9-16.7-1.3-28.5-1.3-35.4V838h24.5v128.5zm161.1-64.4c0 21.3-5.3 37.6-15.8 49s-25.7 17.1-45.4 17.1-34.8-5.7-45.4-17.1-15.8-27.8-15.8-49.2c0-21.4 5.3-37.7 15.9-49s25.7-16.9 45.5-16.9c19.7 0 34.8 5.7 45.3 17.1s15.7 27.7 15.7 49zm-93.8 0c0 14.4 2.7 25.2 8.2 32.4 5.4 7.3 13.6 10.9 24.4 10.9 21.7 0 32.6-14.4 32.6-43.3s-10.8-43.4-32.4-43.4c-10.8 0-19 3.6-24.5 10.9-5.5 7.3-8.3 18.1-8.3 32.5zm132.5 64.4V838h27.2v106h52.1v22.5h-79.3zm226.9-64.4c0 21.3-5.3 37.6-15.8 49s-25.7 17.1-45.4 17.1-34.8-5.7-45.4-17.1c-10.5-11.4-15.8-27.8-15.8-49.2 0-21.4 5.3-37.7 15.9-49s25.7-16.9 45.5-16.9c19.7 0 34.8 5.7 45.3 17.1 10.4 11.3 15.7 27.7 15.7 49zm-93.8 0c0 14.4 2.7 25.2 8.2 32.4 5.4 7.3 13.6 10.9 24.4 10.9 21.7 0 32.6-14.4 32.6-43.3s-10.8-43.4-32.4-43.4c-10.8 0-19 3.6-24.5 10.9-5.6 7.3-8.3 18.1-8.3 32.5zm181.3-7.7h51V961a145.7 145.7 0 01-45.7 7.3c-19.4 0-34.2-5.7-44.4-17.1s-15.3-27.8-15.3-49.1c0-20.7 5.9-36.9 17.8-48.5s28.3-17.4 49.4-17.4c13.2 0 25.9 2.6 38.1 7.9l-9.1 21.8c-9.4-4.7-19.1-7-29.3-7-11.8 0-21.2 4-28.3 11.9a45.9 45.9 0 00-10.6 31.9c0 13.9 2.9 24.6 8.6 31.9 5.7 7.4 14 11 24.9 11 5.7 0 11.5-.6 17.3-1.8V917h-24.3v-22.6zm133.7-3.5l26.8-52.9h29.4l-42.6 78.5v50h-27.1v-49.1l-42.6-79.4h29.5l26.6 52.9zm97.8 56.7c-3 11.8-8.2 25.9-15.5 42.1h-19.3c3.8-15.6 6.8-30.3 8.9-44.1h24.6l1.3 2zm174.9-16.8c0 11.6-4.2 20.7-12.5 27.4-8.3 6.7-20 10-34.8 10a82.9 82.9 0 01-36.4-7.7v-25.3c8.7 3.9 16 6.6 22 8.2s11.5 2.4 16.5 2.4c6 0 10.6-1.1 13.8-3.4s4.8-5.7 4.8-10.2c0-2.5-.7-4.8-2.1-6.7s-3.5-3.9-6.2-5.7-8.3-4.7-16.7-8.7a80.3 80.3 0 01-17.7-10.6 34.4 34.4 0 01-12.9-27.7c0-11.4 3.9-20.3 11.6-26.8a48 48 0 0131.9-9.8c6.7 0 13.1.8 19.1 2.4s12.4 3.8 19 6.7l-8.8 21.2c-6.9-2.8-12.5-4.8-17-5.9s-8.9-1.7-13.2-1.7c-5.2 0-9.1 1.2-11.9 3.6s-4.1 5.5-4.1 9.4c0 2.4.6 4.5 1.7 6.3s2.9 3.5 5.3 5.2 8.2 4.7 17.3 9a68.4 68.4 0 0124.7 17.3 34.2 34.2 0 016.6 21.1zm35.4 35.7V838h27.2v128.5h-27.2zm126.1 0l-30.9-100.8h-.8c1.1 20.5 1.7 34.2 1.7 41v59.8h-24.3V838h37.1l30.4 98.3h.5L4125 838h37.1v128.5h-25.4v-60.8l.1-9.9 1.2-29.9h-.8L4104 966.5h-25zm154.7-68h9c8.4 0 14.6-1.7 18.8-5 4.2-3.3 6.2-8.1 6.2-14.5s-1.7-11.1-5.2-14.2c-3.5-3-9-4.6-16.4-4.6h-12.4v38.3zm61.5-20.4c0 13.8-4.3 24.4-13 31.7-8.6 7.3-20.9 11-36.9 11h-11.7v45.7h-27.2V838h41c15.6 0 27.4 3.4 35.6 10.1 8.1 6.7 12.2 16.7 12.2 30zm36.4 88.4V838h27.2v106h52.1v22.5h-79.3zm113.8 0V838h27.2v128.5h-27.2zm98.5 0h-26.8V838h73.7v22.3H4544v33.1h43.6v22.2H4544v50.9zm84.1 0V838h27.2v128.5H4628zm145.7 0h-74V838h74v22.3H4727v28.2h43.5v22.3H4727V944h46.8v22.5zm145.6-65.5c0 21.2-6 37.4-18.1 48.6s-29.4 16.9-52.2 16.9h-36.4V838h40.3c21 0 37.3 5.5 48.9 16.6s17.5 26.6 17.5 46.4zm-28.3.8c0-27.6-12.2-41.4-36.6-41.4h-14.5V944h11.7c26.2 0 39.4-14.1 39.4-42.2zm125.9 64.7V838h27.2v106h52.1v22.5h-79.3zm113.8 0V838h27.2v128.5h-27.2zm98.5 0h-26.8V838h73.7v22.3h-46.8v33.1h43.6v22.2h-43.6v50.9zm158.1 0h-74V838h74v22.3h-46.8v28.2h43.5v22.3h-43.5V944h46.8v22.5z"/></svg>
